
<svg width="184px" height="27px" viewBox="0 0 184 27" version="1.1" xmlns="http://www.w3.org/2000/svg" xmlns:xlink="http://www.w3.org/1999/xlink">
    <!-- Generator: Sketch 43.2 (39069) - http://www.bohemiancoding.com/sketch -->
    <title>marca-geekhunter</title>
    <desc>Created with Sketch.</desc>
    <defs></defs>
    <g id="Symbols" stroke="none" stroke-width="1" fill="none" fill-rule="evenodd">
        <g id="header/transparent" transform="translate(-48.000000, -50.000000)">
            <g id="header">
                <g id="marca-geekhunter" transform="translate(48.000000, 47.999961)">
                    <rect id="area" x="0" y="0" width="184" height="32"></rect>
                    <path d="M65.0886397,20.8190632 C64.284548,20.8190632 63.5461865,20.6583433 62.8735328,20.3368987 C62.2008792,20.0154542 61.6248799,19.5753879 61.1455175,19.0166866 C60.6661552,18.4579853 60.2950415,17.8112792 60.0321653,17.0765488 C59.7692892,16.3418184 59.6378531,15.561179 59.6378531,14.7346073 C59.6378531,13.8621149 59.7770208,13.0508622 60.0553602,12.3008249 C60.3336996,11.5507876 60.7202764,10.8926015 61.215102,10.3262467 C61.7099277,9.75989204 62.3013901,9.31599907 62.989507,8.99455451 C63.6776239,8.67310995 64.4391801,8.51239008 65.2741984,8.51239008 C66.2329231,8.51239008 67.0679289,8.72285657 67.7792408,9.14379588 C68.4905527,9.56473519 69.0704178,10.1272547 69.5188535,10.8313714 L69.5188535,8.71903198 L72.2326494,8.71903198 L72.2326494,20.1761773 C72.2326494,21.0639765 72.0664214,21.8599226 71.7339604,22.5640392 C71.4014994,23.2681559 70.9337416,23.8651154 70.3306728,24.3549357 C69.727604,24.844756 69.0163028,25.219769 68.1967478,25.479986 C67.3771928,25.740203 66.4803348,25.8703096 65.5061468,25.8703096 C64.1608395,25.8703096 63.0359012,25.6521898 62.1312981,25.2159436 C61.2266949,24.7796974 60.4496757,24.1636046 59.800217,23.3676466 L61.4934401,21.7374716 C61.9573391,22.3038263 62.54107,22.7477193 63.2446502,23.0691639 C63.9482305,23.3906084 64.7020551,23.5513283 65.5061468,23.5513283 C65.9855091,23.5513283 66.4455355,23.486275 66.8862396,23.3561665 C67.3269437,23.226058 67.7135204,23.0232448 68.0459814,22.7477209 C68.3784424,22.472197 68.6413146,22.1201439 68.8346058,21.6915512 C69.0278971,21.2629584 69.1245413,20.7578389 69.1245413,20.1761773 L69.1245413,18.6608033 C68.7224955,19.3496131 68.1580934,19.8815193 67.4313182,20.256538 C66.7045431,20.6315567 65.923658,20.8190632 65.0886397,20.8190632 L65.0886397,20.8190632 Z M66.1556022,18.3623206 C66.4957949,18.3623206 66.8205193,18.3087473 67.1297854,18.2015991 C67.4390514,18.0944509 67.7212524,17.9490377 67.9763969,17.7653551 C68.2315414,17.5816725 68.4596217,17.3673793 68.6606446,17.1224692 C68.8616675,16.8775591 69.0162982,16.6173459 69.1245413,16.341822 L69.1245413,13.4717957 C68.8462019,12.767679 68.4132359,12.2013328 67.8256305,11.77274 C67.238025,11.3441473 66.6195022,11.1298541 65.9700435,11.1298541 C65.4906812,11.1298541 65.0538495,11.233174 64.6595353,11.439817 C64.2652211,11.6464599 63.9288993,11.9219797 63.6505599,12.2663846 C63.3722204,12.6107895 63.1596032,13.0049358 63.0127019,13.4488354 C62.8658005,13.8927351 62.7923509,14.3519347 62.7923509,14.8264481 C62.7923509,15.3162684 62.8773978,15.775468 63.0474941,16.2040608 C63.2175904,16.6326535 63.4534022,17.0076665 63.7549366,17.3291111 C64.056471,17.6505557 64.4121216,17.9031155 64.8218991,18.0867981 C65.2316766,18.2704807 65.6762399,18.3623206 66.1556022,18.3623206 L66.1556022,18.3623206 Z M80.6755699,20.9797847 C79.7013819,20.9797847 78.819987,20.8152381 78.0313586,20.4861401 C77.2427302,20.1570421 76.5700866,19.7093225 76.0134078,19.1429678 C75.4567289,18.5766131 75.0276287,17.9184269 74.7260944,17.1683896 C74.42456,16.4183523 74.273795,15.6300596 74.273795,14.8034879 C74.273795,13.9463024 74.4206942,13.1388764 74.7144969,12.3811856 C75.0082997,11.6234949 75.4335341,10.9576554 75.9902129,10.3836473 C76.5468918,9.80963913 77.2234011,9.35426617 78.0197612,9.01751472 C78.8161212,8.68076328 79.7091135,8.51239008 80.6987648,8.51239008 C81.6884161,8.51239008 82.5736768,8.68076328 83.3545736,9.01751472 C84.1354703,9.35426617 84.8003823,9.80581247 85.3493295,10.3721672 C85.8982767,10.9385219 86.3157796,11.596708 86.6018507,12.3467453 C86.8879218,13.0967826 87.0309552,13.877422 87.0309552,14.6886868 C87.0309552,14.8876763 87.0270894,15.0790095 87.0193578,15.2626921 C87.0116261,15.4463747 86.9922973,15.5994413 86.9613707,15.7218963 L77.5674618,15.7218963 C77.6138517,16.1964097 77.7298248,16.6173427 77.9153844,16.9847079 C78.100944,17.3520731 78.3406216,17.6658596 78.6344243,17.9260766 C78.9282271,18.1862936 79.2606831,18.3852801 79.6318023,18.5230421 C80.0029215,18.660804 80.3894983,18.729684 80.7915441,18.729684 C81.4100762,18.729684 81.9938071,18.5804441 82.5427543,18.2819599 C83.0917015,17.9834756 83.4666809,17.5893293 83.6677039,17.099509 L86.3351101,17.8342357 C85.8866743,18.7526488 85.1715074,19.5065015 84.1895877,20.0958165 C83.207668,20.6851316 82.0363405,20.9797847 80.6755699,20.9797847 L80.6755699,20.9797847 Z M83.8300677,13.724358 C83.7527512,12.8212518 83.4164295,12.0980124 82.8210923,11.554618 C82.2257552,11.0112237 81.5028567,10.7395305 80.6523751,10.7395305 C80.234866,10.7395305 79.8444235,10.8122372 79.4810359,10.9576525 C79.1176483,11.1030679 78.7967896,11.3058811 78.5184501,11.5660981 C78.2401107,11.8263152 78.0120304,12.1401016 77.8342025,12.5074668 C77.6563745,12.874832 77.5519988,13.2804583 77.5210722,13.724358 L83.8300677,13.724358 Z M94.5924719,20.9797847 C93.6182839,20.9797847 92.7368889,20.8152381 91.9482605,20.4861401 C91.1596322,20.1570421 90.4869886,19.7093225 89.9303098,19.1429678 C89.3736309,18.5766131 88.9445307,17.9184269 88.6429963,17.1683896 C88.3414619,16.4183523 88.190697,15.6300596 88.190697,14.8034879 C88.190697,13.9463024 88.3375962,13.1388764 88.6313989,12.3811856 C88.9252016,11.6234949 89.3504361,10.9576554 89.9071149,10.3836473 C90.4637938,9.80963913 91.1403031,9.35426617 91.9366631,9.01751472 C92.7330232,8.68076328 93.6260154,8.51239008 94.6156668,8.51239008 C95.6053181,8.51239008 96.4905788,8.68076328 97.2714756,9.01751472 C98.0523723,9.35426617 98.7172843,9.80581247 99.2662315,10.3721672 C99.8151787,10.9385219 100.232682,11.596708 100.518753,12.3467453 C100.804824,13.0967826 100.947857,13.877422 100.947857,14.6886868 C100.947857,14.8876763 100.943991,15.0790095 100.93626,15.2626921 C100.928528,15.4463747 100.909199,15.5994413 100.878273,15.7218963 L91.4843638,15.7218963 C91.5307537,16.1964097 91.6467267,16.6173427 91.8322864,16.9847079 C92.017846,17.3520731 92.2575236,17.6658596 92.5513263,17.9260766 C92.845129,18.1862936 93.177585,18.3852801 93.5487043,18.5230421 C93.9198235,18.660804 94.3064003,18.729684 94.7084461,18.729684 C95.3269782,18.729684 95.9107091,18.5804441 96.4596563,18.2819599 C97.0086035,17.9834756 97.3835829,17.5893293 97.5846058,17.099509 L100.252012,17.8342357 C99.8035763,18.7526488 99.0884093,19.5065015 98.1064897,20.0958165 C97.12457,20.6851316 95.9532425,20.9797847 94.5924719,20.9797847 L94.5924719,20.9797847 Z M97.7469697,13.724358 C97.6696532,12.8212518 97.3333314,12.0980124 96.7379943,11.554618 C96.1426572,11.0112237 95.4197587,10.7395305 94.5692771,10.7395305 C94.1517679,10.7395305 93.7613254,10.8122372 93.3979378,10.9576525 C93.0345502,11.1030679 92.7136915,11.3058811 92.4353521,11.5660981 C92.1570127,11.8263152 91.9289324,12.1401016 91.7511044,12.5074668 C91.5732765,12.874832 91.4689007,13.2804583 91.4379741,13.724358 L97.7469697,13.724358 Z M111.153585,20.7501825 L107.62797,15.5382146 L105.957942,17.1683896 L105.957942,20.7501825 L102.849834,20.7501825 L102.849834,3.98922851 L105.957942,3.98922851 L105.957942,14.160602 L110.828858,8.74199219 L114.145719,8.74199219 L109.599531,13.839159 L114.470447,20.7501825 L111.153585,20.7501825 Z M126.230229,20.7501825 L124.65298,20.7501825 L124.65298,14.0687611 C124.65298,12.7064485 124.417168,11.688556 123.945538,11.0150531 C123.473907,10.3415502 122.781935,10.0048038 121.8696,10.0048038 C121.421164,10.0048038 120.976601,10.0928171 120.535897,10.2688462 C120.095193,10.4448754 119.681555,10.6859552 119.294973,10.9920929 C118.90839,11.2982305 118.572069,11.6579369 118.285998,12.0712228 C117.999926,12.4845086 117.787309,12.9360549 117.64814,13.4258752 L117.64814,20.7501825 L116.070891,20.7501825 L116.070891,3.98922851 L117.64814,3.98922851 L117.64814,11.4972175 C118.142965,10.5941114 118.815609,9.88235194 119.66609,9.36191789 C120.516572,8.84148383 121.428893,8.58127071 122.403081,8.58127071 C123.09893,8.58127071 123.690392,8.70755061 124.177486,8.96011419 C124.66458,9.21267778 125.058888,9.56473082 125.360423,10.0162839 C125.661957,10.467837 125.882306,11.0112232 126.021476,11.6464589 C126.160645,12.2816946 126.230229,12.981974 126.230229,13.7473182 L126.230229,20.7501825 Z M133.23507,20.9797847 C131.967079,20.9797847 131.008369,20.5473717 130.35891,19.6825327 C129.709451,18.8176938 129.384727,17.5281082 129.384727,15.8137372 L129.384727,8.78791261 L130.961976,8.78791261 L130.961976,15.5382146 C130.961976,18.2475331 131.897491,19.602172 133.768551,19.602172 C134.23245,19.602172 134.688611,19.5256387 135.137046,19.3725699 C135.585482,19.219501 135.999119,18.9975546 136.37797,18.7067238 C136.756821,18.415893 137.097009,18.0714932 137.398543,17.6735143 C137.700077,17.2755353 137.943621,16.823989 138.12918,16.3188618 L138.12918,8.78791261 L139.706429,8.78791261 L139.706429,18.729684 C139.706429,19.1582767 139.899718,19.3725699 140.2863,19.3725699 L140.2863,20.7501825 C139.977034,20.7961032 139.760551,20.8190632 139.636845,20.8190632 C139.281189,20.8190632 138.975793,20.7119166 138.720649,20.4976202 C138.465504,20.2833238 138.337934,20.0154574 138.337934,19.6940128 L138.337934,18.0408776 C137.796718,18.9745976 137.077685,19.697837 136.180814,20.2106176 C135.283942,20.7233982 134.302038,20.9797847 133.23507,20.9797847 L133.23507,20.9797847 Z M153.437772,20.7501825 L151.860524,20.7501825 L151.860524,14.0687611 C151.860524,12.6452209 151.651772,11.6120218 151.234263,10.9691327 C150.816754,10.3262435 150.167305,10.0048038 149.285897,10.0048038 C148.821998,10.0048038 148.358106,10.0889904 147.894206,10.2573661 C147.430307,10.4257418 146.997341,10.662995 146.595296,10.9691327 C146.19325,11.2752703 145.841465,11.6388034 145.539931,12.0597427 C145.238396,12.480682 145.010316,12.9360549 144.855683,13.4258752 L144.855683,20.7501825 L143.278434,20.7501825 L143.278434,8.78791261 L144.716514,8.78791261 L144.716514,11.4972175 C144.963927,11.0686248 145.269322,10.6744784 145.63271,10.3147666 C145.996098,9.95505487 146.402003,9.64509512 146.850439,9.3848781 C147.298875,9.12466107 147.774364,8.92567457 148.276921,8.78791261 C148.779479,8.65015066 149.301357,8.58127071 149.842573,8.58127071 C150.522958,8.58127071 151.091226,8.70372395 151.547393,8.94863409 C152.003561,9.19354423 152.370809,9.53794395 152.649148,9.98184358 C152.927487,10.4257432 153.128507,10.9691294 153.252214,11.6120186 C153.37592,12.2549077 153.437772,12.9666671 153.437772,13.7473182 L153.437772,20.7501825 Z M162.460564,20.1761773 C162.367784,20.2220979 162.232482,20.2833245 162.054654,20.359859 C161.876826,20.4363934 161.671941,20.5129266 161.439991,20.5894611 C161.208042,20.6659955 160.945169,20.7348754 160.651367,20.796103 C160.357564,20.8573305 160.048303,20.8879438 159.723573,20.8879438 C159.383381,20.8879438 159.058656,20.8420238 158.74939,20.7501825 C158.440124,20.6583412 158.16952,20.5167547 157.937571,20.3254186 C157.705621,20.1340826 157.520064,19.8930028 157.380895,19.602172 C157.241725,19.3113412 157.172141,18.9745948 157.172141,18.5919227 L157.172141,10.027764 L155.502113,10.027764 L155.502113,8.78791261 L157.172141,8.78791261 L157.172141,4.74691547 L158.74939,4.74691547 L158.74939,8.78791261 L161.53277,8.78791261 L161.53277,10.027764 L158.74939,10.027764 L158.74939,18.1556787 C158.780317,18.5995783 158.934947,18.9248447 159.213287,19.1314877 C159.491626,19.3381306 159.824082,19.4414505 160.210665,19.4414505 C160.6591,19.4414505 161.053409,19.3687439 161.393601,19.2233285 C161.733794,19.0779131 161.950277,18.9745932 162.043057,18.9133657 L162.460564,20.1761773 Z M169.604574,20.9797847 C168.723165,20.9797847 167.911354,20.8152381 167.169116,20.4861401 C166.426877,20.1570421 165.78516,19.7054958 165.243944,19.1314877 C164.702729,18.5574795 164.28136,17.8954667 163.979826,17.1454294 C163.678291,16.3953921 163.527526,15.5917928 163.527526,14.7346073 C163.527526,13.8927286 163.678291,13.1006093 163.979826,12.3582254 C164.28136,11.6158416 164.702729,10.9653087 165.243944,10.4066075 C165.78516,9.84790622 166.423011,9.40401325 167.157518,9.07491525 C167.892025,8.74581724 168.699971,8.58127071 169.581379,8.58127071 C170.462787,8.58127071 171.270732,8.74581724 172.005239,9.07491525 C172.739746,9.40401325 173.369866,9.85173289 173.895618,10.4180876 C174.421371,10.9844423 174.831142,11.6349751 175.124945,12.3697055 C175.418747,13.104436 175.565647,13.8850753 175.565647,14.711647 C175.565647,14.8341021 175.561781,14.9565554 175.554049,15.0790104 C175.546318,15.2014655 175.53472,15.2856521 175.519257,15.3315727 L165.197555,15.3315727 C165.243945,15.9744619 165.394709,16.5675947 165.649854,17.1109891 C165.904998,17.6543835 166.229723,18.1250631 166.624037,18.5230421 C167.018351,18.9210211 167.474512,19.2309808 167.992532,19.4529306 C168.510553,19.6748804 169.063358,19.7858537 169.650963,19.7858537 C170.053009,19.7858537 170.447317,19.7322804 170.8339,19.6251322 C171.220482,19.517984 171.576133,19.3725708 171.900862,19.1888882 C172.225592,19.0052056 172.515524,18.7794324 172.770669,18.511562 C173.025813,18.2436915 173.222967,17.9490384 173.362137,17.6275938 L174.730632,17.9949572 C174.545073,18.4388569 174.282201,18.8406565 173.942008,19.2003683 C173.601815,19.5600801 173.207507,19.8738665 172.759071,20.1417369 C172.310636,20.4096074 171.815817,20.6162472 171.274602,20.7616626 C170.733386,20.907078 170.176716,20.9797847 169.604574,20.9797847 L169.604574,20.9797847 Z M174.057982,14.1376418 C174.011592,13.4947527 173.860827,12.9092731 173.605683,12.3811856 C173.350538,11.8530981 173.025814,11.3977252 172.6315,11.0150531 C172.237186,10.632381 171.777159,10.3339012 171.251407,10.1196048 C170.725655,9.90530847 170.168984,9.79816189 169.581379,9.79816189 C168.993773,9.79816189 168.437103,9.90530847 167.911351,10.1196048 C167.385598,10.3339012 166.925572,10.632381 166.531258,11.0150531 C166.136944,11.3977252 165.819951,11.8569248 165.580269,12.3926657 C165.340588,12.9284067 165.197555,13.5100595 165.151165,14.1376418 L174.057982,14.1376418 Z M183.962177,10.1655253 C182.89521,10.196139 181.967425,10.4869655 181.178797,11.0380133 C180.390169,11.5890611 179.833498,12.3467405 179.508769,13.3110742 L179.508769,20.7501825 L177.93152,20.7501825 L177.93152,8.78791261 L179.415989,8.78791261 L179.415989,11.657939 C179.833499,10.8160604 180.382438,10.1157809 181.062823,9.55707968 C181.743208,8.99837842 182.477704,8.71903198 183.266332,8.71903198 L183.660645,8.71903198 C183.784351,8.71903198 183.884861,8.7266853 183.962177,8.74199219 L183.962177,10.1655253 Z" id="geekhunter" fill="#7F8080"></path>
                    <g id="simbolo" transform="translate(0.000000, 2.000000)" fill="#6E2B77">
                        <path d="M47.3081823,14.0433244 C47.2805558,9.96311714 43.8660087,6.66882032 39.7104474,6.71397217 C35.6355377,6.75778288 32.3279319,10.0713028 32.3377348,14.0996524 C32.3475378,18.2008709 35.7295569,21.5528369 39.8445696,21.5394255 C43.9506706,21.5260141 47.3358088,18.1262139 47.3081823,14.0433244 M12.7226111,6.71376148 C8.6194151,6.68043022 5.185984,10.0117787 5.17003722,14.0421949 C5.15364747,18.0503902 8.61277061,21.4688444 12.6685692,21.4528454 C16.670326,21.4368464 20.0590175,18.1334961 20.1391944,14.1706313 C20.2202572,10.1611028 16.8244782,6.74709274 12.7226111,6.71376148 M24.1483207,8.12564944 C25.6043919,11.0583388 26.0613984,14.1160745 25.2402761,17.3307079 C23.7234536,23.2688337 18.2193868,27.069769 11.6374746,26.6969895 C6.00328246,26.3780822 0.933097458,21.643232 0.28678213,15.8517799 C-0.27017001,10.8593658 0.177821754,5.82998832 0.0563191756,0.81869929 C0.0414253112,0.194254298 0.877441438,0.00511195522 0.877441438,0.00511195522 L5.40517622,0 C5.40517622,0 6.31174223,0.233577031 6.2694123,0.898524437 C6.22237905,1.63307308 6.25843788,2.37352013 6.25843788,3.28384139 C7.98259866,2.51862102 9.52685723,1.87648079 11.2247578,1.66964322 C13.8829206,1.34601713 16.4007676,1.75654646 18.7539982,2.99442608 C19.4363723,3.35344263 19.8957305,3.29563821 20.5498847,2.97279858 C24.4313041,1.05620859 28.3566213,1.04598468 32.229418,2.97909021 C32.9670562,3.34715099 33.463649,3.26024775 34.147199,2.92364516 C42.9216449,-1.39517055 53.005183,5.03960139 52.6481222,14.7070952 C52.4666523,19.6200774 49.2746619,24.1626394 44.5717283,25.8527305 C39.3549563,27.7280316 34.5701064,26.8365852 30.6651703,22.8099374 C26.9550303,18.984622 26.2393409,14.4078492 28.0697184,9.43077093 C28.6497953,7.85353613 28.6454839,7.78314844 26.9546383,7.67501093 C26.015541,7.61484714 25.0776195,7.60816228 24.1483207,8.12564944" id="Fill-2"></path>
                        <path d="M8.96714001,10.2594451 C7.60348707,11.6076983 6.58462139,13.8693262 8.01327167,15.924527 C8.75406924,11.8024652 11.4086297,10.0486996 15.4677355,9.88761744 C13.9960406,8.27679601 10.7922311,8.45472052 8.96714001,10.2594451" id="Fill-3"></path>
                        <path d="M36.2190319,10.2594451 C34.855379,11.6076983 33.8365133,13.8693262 35.2651636,15.924527 C36.0059611,11.8024652 38.6605216,10.0486996 42.7196274,9.88761744 C41.2479325,8.27679601 38.0445534,8.45472052 36.2190319,10.2594451" id="Fill-4"></path>
                    </g>
                </g>
            </g>
        </g>
    </g>
</svg>